<?xml version="1.0" standalone="no"?>
<!DOCTYPE svg PUBLIC "-//W3C//DTD SVG 20010904//EN"
 "http://www.w3.org/TR/2001/REC-SVG-20010904/DTD/svg10.dtd">
<svg version="1.0" xmlns="http://www.w3.org/2000/svg"
 width="200.000000pt" height="200.000000pt" viewBox="0 0 200.000000 200.000000"
 preserveAspectRatio="xMidYMid meet">

<g transform="translate(0.000000,200.000000) scale(0.100000,-0.100000)"
fill="#000000" stroke="none">
<path d="M544 940 c0 -74 1 -105 3 -67 2 37 2 97 0 135 -2 37 -3 6 -3 -68z"/>
<path d="M1241 1038 c0 -16 -5 -28 -11 -28 -5 0 -10 -7 -10 -15 0 -8 5 -15 10
-15 6 0 10 -30 10 -69 0 -71 14 -101 45 -101 23 0 45 30 44 58 -1 27 -1 27 -8
3 -3 -13 -14 -29 -24 -35 -28 -17 -47 17 -47 86 l0 58 40 0 c29 0 40 4 40 15
0 11 -11 15 -39 15 -36 0 -40 3 -44 28 l-4 27 -2 -27z"/>
<path d="M593 910 c0 -102 0 -103 6 -29 6 81 20 109 55 109 42 0 50 -15 57
-102 l6 -83 1 87 c2 67 -2 90 -14 102 -20 20 -53 20 -81 1 -20 -14 -22 -13
-26 2 -3 10 -4 -29 -4 -87z"/>
<path d="M744 993 c41 -137 59 -184 68 -181 6 2 24 44 39 94 31 97 33 108 20
100 -4 -3 -18 -41 -31 -86 -12 -44 -26 -80 -29 -80 -4 0 -17 38 -30 85 -14 47
-28 85 -33 85 -5 0 -7 -8 -4 -17z"/>
<path d="M916 988 c-10 -14 -16 -44 -16 -78 0 -74 18 -100 70 -100 30 0 42 5
50 21 14 25 3 41 -11 16 -14 -24 -75 -23 -89 2 -22 43 -14 51 51 51 l62 0 -6
40 c-7 53 -22 70 -63 70 -23 0 -38 -7 -48 -22z m82 -10 c7 -7 12 -22 12 -35 0
-21 -4 -23 -50 -23 -43 0 -50 3 -50 19 0 41 59 68 88 39z"/>
<path d="M1063 910 c0 -105 0 -105 6 -29 7 82 21 109 55 109 42 0 50 -15 57
-102 l6 -83 1 87 c2 67 -2 90 -14 102 -20 20 -53 20 -81 1 -20 -14 -22 -13
-26 2 -3 10 -5 -29 -4 -87z"/>
<path d="M1377 995 c-36 -35 -33 -156 4 -176 33 -17 82 -7 97 21 16 31 11 132
-7 154 -17 20 -75 21 -94 1z m92 -39 c10 -22 11 -41 5 -75 -8 -43 -11 -46 -42
-49 -49 -5 -62 11 -62 77 0 65 12 83 55 79 22 -2 34 -11 44 -32z"/>
<path d="M1522 910 l1 -105 7 85 c3 47 3 94 -1 105 -4 11 -7 -27 -7 -85z"/>
<path d="M1550 995 c-11 -13 -8 -14 18 -9 23 5 33 1 46 -17 18 -26 22 -9 6 22
-13 23 -52 25 -70 4z"/>
<path d="M1655 963 c8 -27 23 -75 35 -107 21 -61 16 -86 -16 -86 -8 0 -14 -4
-14 -10 0 -17 39 -11 48 8 9 17 72 226 72 239 0 4 -4 3 -9 -2 -9 -10 -22 -49
-41 -123 -12 -46 -24 -48 -35 -5 -19 79 -37 133 -45 133 -5 0 -3 -21 5 -47z"/>
</g>
</svg>
