<svg width="538" height="312" viewBox="0 0 538 312" fill="none" xmlns="http://www.w3.org/2000/svg">
<g clip-path="url(#clip0)">
<path d="M421.568 207.366H528.835V290.056H421.568V207.366Z" fill="#EBEBEB"/>
<path d="M448.441 289.468C448.563 289.468 448.661 271.043 448.661 248.307C448.661 225.571 448.563 207.137 448.441 207.137C448.318 207.137 448.228 225.571 448.228 248.307C448.228 271.043 448.326 289.468 448.441 289.468Z" fill="#E0E0E0"/>
<path d="M430.659 271.239H438.884V280.529H430.659V271.239Z" fill="#FAFAFA"/>
<path d="M483.921 207.578H496.107V225.22H483.921V207.578Z" fill="#E0E0E0"/>
<path d="M483.921 272.169H496.107V289.811H483.921V272.169Z" fill="#E0E0E0"/>
<path d="M404.792 124.864H512.059V207.554H404.792V124.864Z" fill="#EBEBEB"/>
<path d="M431.672 206.966C431.787 206.966 431.885 188.54 431.885 165.805C431.885 143.069 431.787 124.643 431.672 124.643C431.558 124.643 431.46 143.069 431.46 165.805C431.46 188.54 431.55 206.966 431.672 206.966Z" fill="#E0E0E0"/>
<path d="M413.891 188.736H422.116V198.027H413.891V188.736Z" fill="#FAFAFA"/>
<path d="M467.153 125.084H479.339V142.726H467.153V125.084Z" fill="#E0E0E0"/>
<path d="M467.153 189.667H479.339V207.309H467.153V189.667Z" fill="#E0E0E0"/>
<path d="M412.159 58.5908H498.41V125.076H412.159V58.5908Z" fill="#F5F5F5"/>
<path d="M433.78 124.611C433.869 124.611 433.951 109.785 433.951 91.5068C433.951 73.2283 433.869 58.4112 433.78 58.4112C433.69 58.4112 433.608 73.2283 433.608 91.5068C433.608 109.785 433.682 124.611 433.78 124.611Z" fill="#E0E0E0"/>
<path d="M419.478 109.949H426.094V117.418H419.478V109.949Z" fill="#FAFAFA"/>
<path d="M462.309 58.7623H472.103V72.9508H462.309V58.7623Z" fill="#E0E0E0"/>
<path d="M462.309 110.692H472.103V124.88H462.309V110.692Z" fill="#E0E0E0"/>
<path d="M27.1571 104.757H108.173V167.209H27.1571V104.757Z" fill="#F5F5F5"/>
<path d="M47.4538 166.768C47.5437 166.768 47.6172 152.841 47.6172 135.672C47.6172 118.504 47.5437 104.585 47.4538 104.585C47.364 104.585 47.2986 118.504 47.2986 135.672C47.2986 152.841 47.364 166.768 47.4538 166.768Z" fill="#E0E0E0"/>
<path d="M34.0259 152.996H40.2334V160.017H34.0259V152.996Z" fill="#FAFAFA"/>
<path d="M74.252 104.92H83.457V118.243H74.252V104.92Z" fill="#E0E0E0"/>
<path d="M74.252 153.698H83.457V167.021H74.252V153.698Z" fill="#E0E0E0"/>
<path d="M0.00738525 239.008H93.3809V310.996H0.00738525V239.008Z" fill="#EBEBEB"/>
<path d="M23.3672 310.482C23.4652 310.482 23.5469 294.44 23.5469 274.651C23.5469 254.862 23.4652 238.812 23.3672 238.812C23.2692 238.812 23.1794 254.854 23.1794 274.651C23.1794 294.448 23.2937 310.482 23.3672 310.482Z" fill="#E0E0E0"/>
<path d="M7.92218 294.611H15.0771V302.702H7.92218V294.611Z" fill="#FAFAFA"/>
<path d="M54.2817 239.196H64.8916V254.552H54.2817V239.196Z" fill="#E0E0E0"/>
<path d="M54.2817 295.42H64.8916V310.775H54.2817V295.42Z" fill="#E0E0E0"/>
<path d="M12.9039 167.209H106.277V239.196H12.9039V167.209Z" fill="#EBEBEB"/>
<path d="M36.2965 238.682C36.4027 238.682 36.4844 222.64 36.4844 202.851C36.4844 183.063 36.4027 167.013 36.2965 167.013C36.1904 167.013 36.1087 183.054 36.1087 202.851C36.1087 222.648 36.1904 238.682 36.2965 238.682Z" fill="#E0E0E0"/>
<path d="M20.8187 222.812H27.9736V230.902H20.8187V222.812Z" fill="#FAFAFA"/>
<path d="M67.1783 167.396H77.7881V182.752H67.1783V167.396Z" fill="#E0E0E0"/>
<path d="M67.1783 223.62H77.7881V238.976H67.1783V223.62Z" fill="#E0E0E0"/>
<path d="M185.104 105.761H266.12V168.213H185.104V105.761Z" fill="#F5F5F5"/>
<path d="M205.409 167.772C205.499 167.772 205.564 153.845 205.564 136.677C205.564 119.508 205.499 105.589 205.409 105.589C205.319 105.589 205.246 119.467 205.246 136.677C205.246 153.886 205.319 167.772 205.409 167.772Z" fill="#E0E0E0"/>
<path d="M191.982 154H198.189V161.021H191.982V154Z" fill="#FAFAFA"/>
<path d="M232.199 105.924H241.404V119.247H232.199V105.924Z" fill="#E0E0E0"/>
<path d="M232.199 154.702H241.404V168.025H232.199V154.702Z" fill="#E0E0E0"/>
<path d="M177.925 43.4635H258.94V105.916H177.925V43.4635Z" fill="#EBEBEB"/>
<path d="M198.222 105.475C198.312 105.475 198.386 91.5967 198.386 74.3876C198.386 57.1785 198.312 43.2921 198.222 43.2921C198.133 43.2921 198.059 57.1704 198.059 74.3876C198.059 91.6048 198.157 105.475 198.222 105.475Z" fill="#E0E0E0"/>
<path d="M184.794 91.7028H191.002V98.7235H184.794V91.7028Z" fill="#FAFAFA"/>
<path d="M225.021 43.6268H234.226V56.9499H225.021V43.6268Z" fill="#E0E0E0"/>
<path d="M225.021 92.4048H234.226V105.728H225.021V92.4048Z" fill="#E0E0E0"/>
<path d="M180.956 0.122471H238.922V44.8105H180.956V0.122471Z" fill="#EBEBEB"/>
<path d="M195.477 44.4921C195.543 44.4921 195.592 34.5324 195.592 22.2461C195.592 9.95971 195.543 0.0326653 195.477 0.0326653C195.412 0.0326653 195.363 9.99237 195.363 22.2787C195.363 34.5651 195.42 44.4921 195.477 44.4921Z" fill="#E0E0E0"/>
<path d="M185.872 34.6386H190.315V39.6592H185.872V34.6386Z" fill="#FAFAFA"/>
<path d="M214.655 0.236759H221.238V9.77195H214.655V0.236759Z" fill="#E0E0E0"/>
<path d="M214.655 35.1447H221.238V44.6799H214.655V35.1447Z" fill="#E0E0E0"/>
<path d="M157.955 240.013H251.328V312H157.955V240.013Z" fill="#EBEBEB"/>
<path d="M181.347 311.486C181.453 311.486 181.535 295.444 181.535 275.655C181.535 255.866 181.453 239.817 181.347 239.817C181.241 239.817 181.168 255.858 181.168 275.655C181.168 295.452 181.249 311.486 181.347 311.486Z" fill="#E0E0E0"/>
<path d="M165.878 295.615H173.033V303.706H165.878V295.615Z" fill="#FAFAFA"/>
<path d="M212.238 240.2H222.848V255.556H212.238V240.2Z" fill="#E0E0E0"/>
<path d="M212.238 296.424H222.848V311.78H212.238V296.424Z" fill="#E0E0E0"/>
<path d="M170.852 168.213H264.226V240.2H170.852V168.213Z" fill="#EBEBEB"/>
<path d="M194.245 239.686C194.351 239.686 194.433 223.644 194.433 203.856C194.433 184.067 194.351 168.017 194.245 168.017C194.139 168.017 194.065 184.059 194.065 203.856C194.065 223.653 194.147 239.686 194.245 239.686Z" fill="#E0E0E0"/>
<path d="M178.775 223.816H185.93V231.906H178.775V223.816Z" fill="#FAFAFA"/>
<path d="M225.134 168.401H235.744V183.757H225.134V168.401Z" fill="#E0E0E0"/>
<path d="M225.134 224.624H235.744V239.98H225.134V224.624Z" fill="#E0E0E0"/>
<path d="M373.926 297.738V290.056H531.155C531.712 290.056 532.245 290.277 532.639 290.67C533.033 291.064 533.254 291.598 533.254 292.154V295.64C533.254 296.196 533.033 296.73 532.639 297.124C532.245 297.517 531.712 297.738 531.155 297.738H526.777V301.273C526.777 301.544 526.83 301.813 526.934 302.063C527.038 302.314 527.19 302.542 527.382 302.733C527.574 302.925 527.802 303.077 528.053 303.181C528.303 303.285 528.572 303.338 528.843 303.338H531.187C531.727 303.338 532.245 303.549 532.632 303.926C533.018 304.303 533.241 304.816 533.254 305.355V308.906C533.254 309.454 533.036 309.979 532.649 310.366C532.261 310.754 531.736 310.971 531.187 310.971H373.926V303.289H410.575V297.722L373.926 297.738ZM489.091 297.738H479.665V303.306H489.091V297.738ZM495.372 303.306H504.789V297.738H495.372V303.306ZM473.409 297.738H463.992V303.306H473.409V297.738ZM457.711 297.738H448.285V303.306H457.686L457.711 297.738ZM442.004 297.738H432.57V303.306H441.98L442.004 297.738ZM520.52 297.738H511.07V303.306H520.496L520.52 297.738ZM416.88 303.306H426.281V297.738H416.856L416.88 303.306Z" fill="#E0E0E0"/>
<path d="M379.228 137.591H464.319V203.194H379.228V137.591Z" fill="#E8505B"/>
<path opacity="0.3" d="M379.228 137.591H464.319V203.194H379.228V137.591Z" fill="black"/>
<path d="M400.545 202.729C400.618 202.729 400.684 188.108 400.684 170.074C400.684 152.041 400.618 137.419 400.545 137.419C400.471 137.419 400.406 152.041 400.406 170.074C400.406 188.108 400.471 202.729 400.545 202.729Z" fill="#263238"/>
<path d="M386.439 188.263H392.965V195.635H386.439V188.263Z" fill="#F5F5F5"/>
<path d="M428.699 137.762H438.361V151.763H428.699V137.762Z" fill="#263238"/>
<path d="M428.699 188.998H438.361V202.998H428.699V188.998Z" fill="#263238"/>
<path d="M379.963 137.591H380.183H380.82H383.271L392.312 137.632H422.133H451.961L460.995 137.583H463.445H464.082H464.303H464.082H463.445H460.995L451.961 137.542H422.133H392.312L383.271 137.583H380.82H380.183L379.963 137.591Z" fill="#263238"/>
<path d="M308.389 137.517H393.48V203.121H308.389V137.517Z" fill="#E8505B"/>
<path d="M329.706 202.647C329.779 202.647 329.845 188.026 329.845 169.993C329.845 151.959 329.779 137.338 329.706 137.338C329.632 137.338 329.567 151.951 329.567 169.993C329.567 188.034 329.657 202.647 329.706 202.647Z" fill="#263238"/>
<path d="M315.601 188.181H322.127V195.553H315.601V188.181Z" fill="#F5F5F5"/>
<path opacity="0.5" d="M357.861 137.681H367.523V151.681H357.861V137.681Z" fill="white"/>
<path opacity="0.5" d="M357.861 188.924H367.523V202.925H357.861V188.924Z" fill="white"/>
<path d="M309.132 137.509H309.344H309.989H312.44L321.473 137.55H351.294H381.122L390.164 137.509H392.614H393.259H393.472H393.259H392.614H390.164L381.122 137.46L351.294 137.419L321.473 137.46L312.44 137.509H309.989H309.344H309.132Z" fill="#263238"/>
<path d="M303.611 71.914H388.702V137.517H303.611V71.914Z" fill="#E8505B"/>
<path d="M324.928 137.044C325.009 137.044 325.066 122.423 325.066 104.389C325.066 86.3555 325.009 71.7343 324.928 71.7343C324.846 71.7343 324.789 86.3474 324.789 104.389C324.789 122.431 324.854 137.044 324.928 137.044Z" fill="#263238"/>
<path d="M310.823 122.578H317.349V129.95H310.823V122.578Z" fill="#F5F5F5"/>
<path d="M353.083 72.0772H362.745V86.0779H353.083V72.0772Z" fill="#263238"/>
<path d="M353.083 123.321H362.745V137.321H353.083V123.321Z" fill="#263238"/>
<path d="M304.337 71.8731C304.407 71.8853 304.479 71.8853 304.549 71.8731H305.194H307.645H316.678L346.499 71.914L376.327 71.8731H385.369H387.819H388.464C388.535 71.8853 388.606 71.8853 388.677 71.8731H388.464H387.819H385.369L376.327 71.8241H346.499H316.678L307.645 71.8731H305.194H304.549H304.337Z" fill="#263238"/>
<path d="M312.709 276.235V268.553H469.93C470.487 268.553 471.022 268.774 471.417 269.167C471.812 269.56 472.035 270.094 472.037 270.651V274.137C472.035 274.694 471.812 275.228 471.417 275.621C471.022 276.014 470.487 276.235 469.93 276.235H465.552V279.729C465.552 280.279 465.771 280.806 466.16 281.195C466.549 281.584 467.076 281.802 467.627 281.802H469.962C470.511 281.802 471.038 282.02 471.427 282.407C471.815 282.794 472.035 283.319 472.037 283.868V287.395C472.035 287.943 471.815 288.468 471.427 288.856C471.038 289.243 470.511 289.46 469.962 289.46H312.709V281.778H349.358V276.21L312.709 276.235ZM427.874 276.235H418.457V281.802H427.866L427.874 276.235ZM434.155 281.802H443.573V276.235H434.147L434.155 281.802ZM412.151 276.235H402.726V281.802H412.151V276.235ZM396.445 276.235H387.027V281.802H396.461L396.445 276.235ZM380.746 276.235H371.313V281.802H380.763L380.746 276.235ZM459.255 276.235H449.837V281.802H459.271L459.255 276.235ZM355.623 281.802H365.064V276.235H355.639L355.623 281.802Z" fill="#455A64"/>
<path d="M185.979 143.885C185.722 143.622 185.519 143.31 185.384 142.968C185.248 142.626 185.182 142.26 185.19 141.892C185.197 141.524 185.278 141.162 185.428 140.825C185.577 140.489 185.793 140.186 186.061 139.934L212.581 114.879C213.111 114.382 213.811 114.106 214.538 114.106C215.264 114.106 215.964 114.382 216.494 114.879C216.772 115.138 216.997 115.45 217.153 115.797C217.31 116.144 217.395 116.518 217.405 116.898C217.415 117.278 217.349 117.657 217.211 118.011C217.072 118.365 216.865 118.688 216.6 118.961L206.023 130.08L211.528 135.378L214.395 133.101L234.397 156L245.089 145.722L257.978 183.61L255.421 235.041H225.772L227.847 173.919L207.958 145.608L207.803 138.873L202.086 133.019L189.761 144.024C189.226 144.5 188.529 144.751 187.813 144.725C187.098 144.699 186.421 144.398 185.922 143.885H185.979Z" fill="#263238"/>
<path d="M265.949 244.568C266.063 244.568 266.161 197.643 266.161 139.771C266.161 81.8982 266.063 34.9569 265.949 34.9569C265.834 34.9569 265.736 81.8737 265.736 139.771C265.736 197.667 265.859 244.568 265.949 244.568Z" fill="#263238"/>
<path d="M199.586 231.351L181.552 181.267L188.331 178.524V168.85L139.022 168.09C137.86 168.068 136.745 167.624 135.886 166.842C135.026 166.06 134.481 164.992 134.35 163.837L127.097 99.4909C126.935 98.0519 126.248 96.7231 125.168 95.758C124.088 94.7928 122.69 94.2589 121.241 94.258C120.447 94.2573 119.66 94.4173 118.929 94.7283C118.198 95.0393 117.538 95.4949 116.988 96.0676C116.438 96.6404 116.009 97.3185 115.728 98.0612C115.447 98.8038 115.319 99.5956 115.352 100.389L118.113 166.694L92.3681 166.833L91.4942 178.924L167.634 181.903L187.49 230.632L199.586 231.351Z" fill="#455A64"/>
<path d="M188.241 230.126L252.342 230.632V234.902L225.789 234.559L183.496 234.233L80.9584 219.767L92.5811 175.552H162.007C163.207 175.534 164.393 175.809 165.464 176.352C166.534 176.896 167.455 177.691 168.149 178.671L188.241 230.126Z" fill="#263238"/>
<path d="M218.96 45.2269L265.516 193.749L265.189 235.065H250.43V194.01L212.254 45.6269L108.818 45.0473L89.0355 199.61H77.3638L101.434 46.133C101.813 44.1255 102.881 42.3131 104.454 41.0089C106.028 39.7047 108.007 38.9906 110.051 38.9898H210.563C212.448 38.989 214.282 39.5953 215.795 40.7188C217.307 41.8423 218.417 43.4231 218.96 45.2269Z" fill="#455A64"/>
<path d="M273.921 282.782V243.107L265.23 235.065L183.553 234.012L168.851 222.061C166.113 219.838 162.743 218.536 159.222 218.338L143.49 217.448C143.49 217.448 136.434 212.591 129.605 207.774C120.957 201.649 110.621 198.357 100.022 198.353H54.7481C53.1039 198.353 51.5271 199.006 50.3645 200.168C49.2019 201.33 48.5488 202.906 48.5488 204.549V282.782H273.921Z" fill="#E8505B"/>
<path d="M48.5656 269.998H274.722V283.043H48.5656V269.998Z" fill="#263238"/>
<path d="M263.016 282.635C263.098 288.164 261.538 293.592 258.533 298.234C255.528 302.876 251.213 306.523 246.134 308.713C241.055 310.904 235.44 311.54 230 310.541C224.559 309.542 219.537 306.953 215.569 303.101C211.601 299.249 208.865 294.307 207.707 288.9C206.549 283.494 207.021 277.866 209.063 272.728C211.106 267.589 214.627 263.172 219.181 260.034C223.736 256.896 229.119 255.179 234.65 255.099C242.065 254.992 249.218 257.833 254.537 262.997C259.857 268.16 262.907 275.224 263.016 282.635Z" fill="#263238"/>
<path d="M263.008 282.57C263.008 282.57 263.008 282.611 263.008 282.635C263.051 290.006 260.179 297.094 255.018 302.359C249.857 307.623 242.824 310.637 235.451 310.745C228.078 310.852 220.96 308.045 215.647 302.933C210.335 297.822 207.257 290.82 207.084 283.452C207.084 283.452 207.084 283.403 207.084 283.378L263.008 282.57Z" fill="#263238"/>
<path d="M254.686 282.758C254.735 286.63 253.636 290.43 251.526 293.678C249.416 296.926 246.391 299.476 242.832 301.006C239.273 302.537 235.34 302.979 231.529 302.276C227.719 301.574 224.203 299.759 221.424 297.06C218.646 294.361 216.729 290.9 215.918 287.114C215.106 283.327 215.435 279.385 216.863 275.785C218.291 272.185 220.755 269.089 223.943 266.888C227.13 264.687 230.899 263.479 234.773 263.418C237.352 263.377 239.914 263.845 242.312 264.795C244.709 265.746 246.896 267.16 248.746 268.957C250.596 270.753 252.073 272.897 253.092 275.265C254.111 277.634 254.653 280.18 254.686 282.758Z" fill="#FAFAFA"/>
<path d="M234.773 263.418C237.352 263.377 239.914 263.845 242.311 264.795C244.709 265.746 246.895 267.16 248.745 268.957C250.595 270.753 252.072 272.897 253.092 275.265C254.111 277.634 254.653 280.18 254.686 282.758L215.423 283.321C215.382 280.743 215.851 278.183 216.802 275.786C217.752 273.39 219.167 271.204 220.965 269.355C222.762 267.506 224.907 266.03 227.277 265.011C229.646 263.992 232.193 263.451 234.773 263.418Z" fill="#E0E0E0"/>
<path d="M247.017 282.872C247.046 285.235 246.373 287.555 245.083 289.536C243.793 291.517 241.945 293.072 239.771 294.003C237.597 294.934 235.196 295.2 232.871 294.768C230.546 294.335 228.402 293.223 226.709 291.572C225.017 289.922 223.852 287.806 223.362 285.494C222.872 283.181 223.079 280.776 223.957 278.581C224.835 276.386 226.344 274.501 228.294 273.163C230.244 271.826 232.547 271.096 234.912 271.067C238.083 271.03 241.139 272.253 243.408 274.466C245.678 276.679 246.976 279.703 247.017 282.872Z" fill="#263238"/>
<path d="M126.175 282.635C126.256 288.164 124.696 293.592 121.691 298.234C118.686 302.876 114.371 306.523 109.292 308.713C104.213 310.904 98.5985 311.54 93.1579 310.541C87.7173 309.542 82.6954 306.953 78.7272 303.101C74.759 299.249 72.0229 294.307 70.8648 288.9C69.7068 283.494 70.1789 277.866 72.2214 272.728C74.2638 267.589 77.785 263.172 82.3394 260.034C86.8939 256.896 92.2771 255.179 97.8082 255.099C105.223 254.992 112.376 257.833 117.696 262.997C123.015 268.16 126.065 275.224 126.175 282.635Z" fill="#263238"/>
<path d="M126.167 282.57C126.167 282.57 126.167 282.611 126.167 282.635C126.209 290.006 123.337 297.094 118.176 302.359C113.015 307.623 105.982 310.637 98.6091 310.745C91.2358 310.852 84.1183 308.045 78.8057 302.933C73.493 297.822 70.4153 290.82 70.2421 283.452C70.2421 283.452 70.2421 283.403 70.2421 283.378L126.167 282.57Z" fill="#263238"/>
<path d="M117.844 282.758C117.894 286.63 116.794 290.43 114.684 293.678C112.574 296.926 109.549 299.476 105.99 301.006C102.431 302.537 98.4979 302.979 94.6877 302.276C90.8776 301.574 87.3611 299.759 84.5824 297.06C81.8038 294.361 79.8876 290.9 79.0758 287.114C78.264 283.327 78.593 279.385 80.0213 275.785C81.4497 272.185 83.9132 269.089 87.1009 266.888C90.2885 264.687 94.0573 263.479 97.9312 263.418C100.51 263.377 103.072 263.845 105.47 264.795C107.868 265.746 110.054 267.16 111.904 268.957C113.754 270.753 115.231 272.897 116.25 275.265C117.269 277.634 117.811 280.18 117.844 282.758Z" fill="#FAFAFA"/>
<path d="M97.9309 263.418C100.51 263.377 103.072 263.845 105.469 264.795C107.867 265.746 110.054 267.16 111.904 268.957C113.753 270.753 115.23 272.897 116.25 275.265C117.269 277.634 117.811 280.18 117.844 282.758L78.5816 283.321C78.5405 280.743 79.0089 278.183 79.9598 275.786C80.9107 273.39 82.3255 271.204 84.123 269.355C85.9206 267.506 88.0655 266.03 90.435 265.011C92.8044 263.992 95.3517 263.451 97.9309 263.418Z" fill="#E0E0E0"/>
<path d="M110.166 282.872C110.195 285.234 109.523 287.552 108.234 289.533C106.945 291.514 105.098 293.068 102.926 294C100.754 294.932 98.3538 295.2 96.0296 294.769C93.7054 294.338 91.5609 293.229 89.8674 291.58C88.1738 289.932 87.007 287.819 86.5144 285.508C86.0218 283.197 86.2254 280.793 87.0997 278.597C87.9739 276.402 89.4795 274.515 91.4262 273.175C93.3729 271.835 95.6734 271.101 98.037 271.067C99.6094 271.045 101.171 271.332 102.632 271.913C104.093 272.495 105.425 273.358 106.551 274.455C107.678 275.551 108.577 276.859 109.198 278.304C109.818 279.748 110.147 281.3 110.166 282.872Z" fill="#263238"/>
<path d="M61.8215 263.148C61.8726 263.087 61.919 263.021 61.9604 262.953L62.3197 262.365L62.8915 261.401C63.1413 260.96 63.4139 260.532 63.7083 260.12C65.5021 257.423 67.6197 254.955 70.0137 252.772C70.7325 252.046 71.6064 251.417 72.4641 250.691C73.3217 249.964 74.3018 249.344 75.2819 248.65C76.2621 247.956 77.3402 247.319 78.5 246.756C79.0636 246.462 79.6353 246.143 80.2234 245.858L82.0611 245.041C84.6683 243.943 87.3841 243.122 90.1636 242.592C93.1468 242.019 96.1859 241.789 99.2215 241.907C105.105 242.235 110.842 243.869 116.014 246.69L117.762 247.67C118.326 248.013 118.857 248.389 119.396 248.731C120.498 249.401 121.446 250.217 122.418 250.927C123.39 251.638 124.231 252.446 125.032 253.221C125.832 253.997 126.616 254.74 127.27 255.532C129.446 257.934 131.319 260.593 132.848 263.451C133.104 263.888 133.333 264.34 133.534 264.806C133.722 265.198 133.885 265.532 134.016 265.818L134.318 266.438C134.35 266.51 134.388 266.578 134.433 266.643C134.419 266.566 134.394 266.492 134.359 266.422L134.098 265.785L133.657 264.757C133.464 264.284 133.243 263.823 132.995 263.377C131.513 260.472 129.663 257.769 127.49 255.336C126.845 254.519 126.036 253.801 125.26 252.985C124.484 252.168 123.553 251.45 122.638 250.65C121.724 249.85 120.711 249.107 119.608 248.421C119.069 248.07 118.53 247.695 117.975 247.344L116.219 246.339C113.707 244.978 111.06 243.884 108.32 243.074C105.371 242.207 102.332 241.682 99.2624 241.507C93.314 241.275 87.3892 242.377 81.9223 244.731L80.0764 245.548C79.4801 245.833 78.9084 246.16 78.3367 246.462C77.1687 247.033 76.1477 247.768 75.0696 248.388C73.9914 249.009 73.1175 249.76 72.2436 250.47C71.3696 251.18 70.512 251.85 69.7932 252.585C67.402 254.804 65.3049 257.319 63.5531 260.071C63.257 260.491 62.9844 260.927 62.7363 261.377L62.2054 262.365C62.0665 262.618 61.9604 262.814 61.8787 262.977C61.797 263.14 61.8134 263.14 61.8215 263.148Z" fill="#263238"/>
<path d="M198.541 268.292C198.588 268.223 198.627 268.149 198.655 268.071C198.72 267.9 198.81 267.679 198.924 267.402L199.366 266.316C199.562 265.891 199.782 265.402 200.027 264.855C201.451 261.769 203.224 258.858 205.312 256.177C208.357 252.158 212.243 248.851 216.697 246.486C219.365 245.184 222.194 244.243 225.11 243.686C228.234 243.043 231.42 242.753 234.609 242.821C237.798 242.866 240.971 243.274 244.067 244.037C246.948 244.759 249.725 245.842 252.333 247.262C256.788 249.629 260.771 252.792 264.087 256.593C266.291 259.169 268.208 261.978 269.804 264.969C270.376 266.03 270.809 266.863 271.078 267.418C271.209 267.688 271.323 267.9 271.405 268.063C271.436 268.139 271.477 268.21 271.527 268.275C271.513 268.195 271.485 268.118 271.446 268.047L271.152 267.385C270.907 266.798 270.498 265.957 269.951 264.879C268.405 261.837 266.514 258.983 264.315 256.373C261.004 252.511 257.005 249.297 252.521 246.895C249.888 245.458 247.083 244.361 244.174 243.629C241.045 242.857 237.839 242.443 234.617 242.396C231.394 242.34 228.175 242.647 225.02 243.311C222.071 243.88 219.212 244.841 216.518 246.168C212.027 248.574 208.122 251.942 205.083 256.03C203.004 258.743 201.257 261.694 199.88 264.822L199.259 266.3C199.104 266.732 198.965 267.116 198.859 267.402C198.753 267.688 198.679 267.908 198.622 268.088C198.587 268.152 198.56 268.221 198.541 268.292Z" fill="#263238"/>
<path d="M273.978 268.553H397.947V283.043H273.978V268.553Z" fill="#263238"/>
<path d="M277.335 274.7C277.335 275.414 277.547 276.111 277.944 276.705C278.34 277.298 278.904 277.761 279.564 278.034C280.224 278.307 280.95 278.378 281.65 278.239C282.35 278.1 282.993 277.756 283.498 277.252C284.003 276.747 284.347 276.104 284.486 275.404C284.626 274.704 284.554 273.979 284.281 273.319C284.008 272.66 283.545 272.096 282.951 271.7C282.358 271.303 281.66 271.092 280.946 271.092C279.988 271.092 279.07 271.472 278.393 272.149C277.716 272.825 277.335 273.743 277.335 274.7Z" fill="#455A64"/>
<path d="M275.604 37.8469H285.952V243.311H275.604V37.8469Z" fill="#455A64"/>
<path d="M128.437 255.017C128.437 255.132 145.884 255.23 167.397 255.23C188.911 255.23 206.357 255.132 206.357 255.017C206.357 254.903 188.919 254.805 167.397 254.805C145.875 254.805 128.437 254.903 128.437 255.017Z" fill="#263238"/>
<path d="M144.315 251.94C144.437 251.94 144.527 244.356 144.527 235C144.527 225.644 144.437 218.069 144.315 218.069C144.192 218.069 144.103 225.644 144.103 235C144.103 244.356 144.201 251.94 144.315 251.94Z" fill="#263238"/>
<path d="M265.941 33.1364H287.062V42.5573H265.941V33.1364Z" fill="#263238"/>
<path d="M273.978 241.621H287.577V268.741H273.978V241.621Z" fill="#263238"/>
<path d="M305.554 203.137H390.646V268.741H305.554V203.137Z" fill="#E8505B"/>
<path opacity="0.3" d="M305.554 203.137H390.646V268.741H305.554V203.137Z" fill="black"/>
<path d="M326.872 268.275C326.945 268.275 327.011 253.654 327.011 235.62C327.011 217.587 326.945 202.966 326.872 202.966C326.798 202.966 326.733 217.587 326.733 235.62C326.733 253.654 326.798 268.275 326.872 268.275Z" fill="#263238"/>
<path d="M312.767 253.809H319.293V261.181H312.767V253.809Z" fill="#F5F5F5"/>
<path d="M355.026 203.309H364.688V217.309H355.026V203.309Z" fill="#263238"/>
<path d="M355.026 254.544H364.688V268.545H355.026V254.544Z" fill="#263238"/>
<path d="M306.297 203.137H306.509H307.154H309.605L318.646 203.178L348.442 203.309H378.271L387.304 203.268H389.755H390.4H390.612C390.542 203.261 390.471 203.261 390.4 203.268H389.755H387.304L378.271 203.227L348.442 203.186L318.622 203.227L309.58 203.268H307.13H306.485C306.427 203.218 306.364 203.174 306.297 203.137Z" fill="#263238"/>
<path d="M394.803 203.137H479.895V268.741H394.803V203.137Z" fill="#E8505B"/>
<path d="M416.121 268.275C416.203 268.275 416.26 253.654 416.26 235.62C416.26 217.587 416.203 202.966 416.121 202.966C416.039 202.966 415.99 217.587 415.99 235.62C415.99 253.654 416.047 268.275 416.121 268.275Z" fill="#263238"/>
<path d="M402.015 253.809H408.541V261.181H402.015V253.809Z" fill="#F5F5F5"/>
<path opacity="0.5" d="M444.275 203.309H453.938V217.309H444.275V203.309Z" fill="white"/>
<path opacity="0.5" d="M444.275 254.544H453.938V268.545H444.275V254.544Z" fill="white"/>
<path d="M395.546 203.137H395.766H396.403H398.854L407.887 203.178H437.708H467.536L476.578 203.137H479.028H479.665H479.886C479.812 203.131 479.739 203.131 479.665 203.137H479.028H476.578L467.536 203.096L437.708 203.056L407.887 203.096L398.854 203.137H396.403H395.766C395.693 203.13 395.619 203.13 395.546 203.137Z" fill="#263238"/>
<path d="M44.9961 220.967C40.61 222.028 36.9264 226.477 36.9999 230.992C37.093 233.253 37.9255 235.421 39.3699 237.164C40.8142 238.907 42.7906 240.129 44.9961 240.641" fill="#E8505B"/>
<g opacity="0.6">
<path opacity="0.6" d="M44.9961 220.967C40.61 222.028 36.9264 226.477 36.9999 230.992C37.093 233.253 37.9255 235.421 39.3699 237.164C40.8142 238.907 42.7906 240.129 44.9961 240.641" fill="white"/>
</g>
<path d="M44.8165 218.436H48.5654V243.262H44.8165V218.436Z" fill="#E8505B"/>
<path opacity="0.3" d="M44.8165 218.436H48.5654V243.262H44.8165V218.436Z" fill="black"/>
<path d="M223.192 118.953C223.642 118.604 223.952 118.104 224.065 117.545C224.177 116.985 224.085 116.405 223.804 115.908C223.175 114.814 222.44 113.524 222.105 112.986C221.696 112.348 221.322 111.689 220.986 111.01C220.883 110.604 220.667 110.236 220.364 109.947C220.06 109.658 219.682 109.461 219.271 109.377C218.273 109.249 217.262 109.279 216.273 109.467L206.056 111.671L201.294 114.022L205.925 118.104L208.498 117.288C209.274 117.957 212.304 118.308 213.333 118.186C214.648 118.022 217.278 117.165 218.773 117.451L220.219 117.655L219.532 118.227C218.276 118.136 217.018 118.393 215.898 118.969C215.719 119.09 215.582 119.264 215.506 119.466C215.43 119.668 215.42 119.888 215.475 120.097C215.531 120.305 215.651 120.491 215.817 120.629C215.984 120.766 216.189 120.848 216.404 120.863L219.761 121.084C220.67 120.658 221.544 120.161 222.375 119.598C222.635 119.368 222.908 119.153 223.192 118.953Z" fill="#FFBE9D"/>
<path d="M220.211 117.688C220.376 117.8 220.562 117.878 220.758 117.916C221.291 118.072 221.858 118.072 222.392 117.916C222.775 117.791 223.113 117.555 223.364 117.239C223.507 117.047 223.608 116.827 223.662 116.594C223.715 116.361 223.719 116.119 223.674 115.884C223.613 115.614 223.463 115.373 223.249 115.198C223.036 115.042 222.799 114.924 222.547 114.847C222.058 114.684 221.559 114.556 221.052 114.463C220.089 114.277 219.115 114.152 218.136 114.088C217.687 114.088 217.262 114.039 216.854 114.039H216.544H216.298C216.128 114.015 215.959 113.982 215.792 113.941C215.097 113.717 214.391 113.529 213.677 113.377C214.311 113.753 215 114.028 215.719 114.194C215.892 114.252 216.069 114.295 216.249 114.324C216.358 114.337 216.468 114.337 216.576 114.324H216.854C217.238 114.324 217.671 114.373 218.104 114.414C219.065 114.499 220.022 114.633 220.97 114.814C221.457 114.904 221.937 115.024 222.408 115.173C222.882 115.312 223.225 115.524 223.29 115.908C223.326 116.09 223.326 116.278 223.29 116.46C223.253 116.642 223.181 116.815 223.078 116.969C222.866 117.242 222.584 117.451 222.261 117.573C221.774 117.744 221.252 117.792 220.742 117.712C220.431 117.704 220.211 117.647 220.211 117.688Z" fill="#EB996E"/>
<path d="M218.945 112.365C218.83 112.365 218.634 112.871 218.838 113.516C219.043 114.161 219.5 114.504 219.573 114.414C219.647 114.324 219.402 113.932 219.239 113.394C219.075 112.855 219.067 112.381 218.945 112.365Z" fill="#EB996E"/>
<path d="M217.344 113.01C217.229 113.01 217.197 113.418 217.483 113.826C217.768 114.235 218.152 114.267 218.193 114.153C218.234 114.039 218.022 113.843 217.817 113.565C217.613 113.288 217.466 112.994 217.344 113.01Z" fill="#EB996E"/>
<path d="M177.118 110.732C175.713 110.145 185.187 119.884 185.187 119.884L202.699 113.353L208.882 117.149L190.055 130.399C188.121 131.763 185.761 132.389 183.404 132.164C181.048 131.94 178.849 130.879 177.207 129.174L166.091 116.333L177.118 110.732Z" fill="#FFBE9D"/>
<path d="M166.851 71.7099C169.301 71.2364 170.82 70.4853 170.886 69.5465C171.016 67.6035 164.85 65.6116 157.107 65.081C149.364 64.5503 142.993 65.7096 142.854 67.6444C142.797 68.5832 144.193 69.5302 146.529 70.3221" fill="#E8505B"/>
<g opacity="0.4">
<path opacity="0.4" d="M165.487 71.5466C167.651 71.1384 169.064 70.469 169.064 69.6363C169.064 67.3096 163.715 66.1422 156.854 65.6769C149.993 65.2116 144.333 66.232 144.218 67.9546C144.161 68.7709 145.403 69.5873 147.485 70.3221" fill="black"/>
</g>
<path d="M169.023 68.5016C169.023 68.5016 167.578 60.1338 167.431 59.7174C167.284 59.3011 165.185 55.5458 159.639 54.1335L154.999 53.8151C154.999 53.8151 148.269 55.4886 146.962 57.0152C145.656 58.5419 144.61 66.281 144.61 66.281L157.809 64.3381L166.508 67.0892L169.023 68.5016Z" fill="#E8505B"/>
<path d="M158.185 53.0967L160.177 53.2273C160.642 53.8433 160.874 54.604 160.831 55.3743C160.831 56.8193 160.48 66.73 160.48 66.73L154.681 66.0769L155.685 53.864L153.684 54.1743L153.79 53.4804L154.354 52.9007L158.185 53.0967Z" fill="#E8505B"/>
<path d="M146.064 98.7072L160.275 99.0174C160.455 97.5235 160.324 88.176 160.324 88.176C160.324 88.176 165.731 87.7026 166.164 82.3553C166.597 77.0081 166.499 66.2647 166.499 66.2647L166.442 65.7912C160.422 62.7135 153.259 61.9869 147.656 65.7422L146.84 66.2973L146.064 98.7072Z" fill="#FFBE9D"/>
<path d="M160.324 88.2005C157.85 88.0247 155.477 87.1436 153.488 85.6616C153.488 85.6616 154.966 89.7435 160.341 89.5884L160.324 88.2005Z" fill="#EB996E"/>
<path d="M147.084 71.8731C146.994 71.8731 143.482 70.5425 143.351 74.208C143.221 77.8734 146.929 77.2448 146.937 77.1469C146.945 77.0489 147.084 71.8731 147.084 71.8731Z" fill="#FFBE9D"/>
<path d="M145.884 75.7183C145.884 75.7183 145.818 75.7672 145.712 75.8081C145.636 75.8406 145.554 75.8574 145.471 75.8574C145.388 75.8574 145.307 75.8406 145.23 75.8081C144.999 75.6493 144.814 75.4317 144.695 75.1777C144.576 74.9237 144.526 74.6424 144.552 74.3631C144.553 74.0488 144.626 73.7388 144.765 73.4569C144.804 73.3437 144.869 73.2416 144.956 73.1591C145.043 73.0767 145.148 73.0164 145.263 72.9834C145.337 72.9677 145.413 72.9777 145.48 73.0119C145.547 73.0461 145.6 73.1024 145.631 73.1712C145.68 73.2773 145.631 73.3508 145.671 73.359C145.712 73.3671 145.753 73.3018 145.729 73.1467C145.708 73.0552 145.66 72.9724 145.59 72.9099C145.491 72.8304 145.365 72.7924 145.239 72.8038C145.087 72.828 144.944 72.8911 144.823 72.9869C144.703 73.0828 144.61 73.2081 144.552 73.3508C144.378 73.6471 144.275 73.9795 144.25 74.3223C144.214 74.6517 144.279 74.9844 144.437 75.2761C144.594 75.5677 144.837 75.8045 145.132 75.955C145.229 75.9887 145.333 75.9996 145.435 75.9868C145.537 75.9741 145.635 75.938 145.72 75.8815C145.884 75.8081 145.884 75.7264 145.884 75.7183Z" fill="#EB996E"/>
<path d="M164.727 72.8691C164.704 73.0697 164.609 73.255 164.458 73.3892C164.307 73.5233 164.112 73.5969 163.91 73.5957C163.713 73.5957 163.524 73.5174 163.384 73.3781C163.245 73.2388 163.166 73.0498 163.166 72.8528C163.189 72.6522 163.284 72.4669 163.435 72.3328C163.586 72.1986 163.781 72.125 163.983 72.1262C164.18 72.1262 164.369 72.2045 164.509 72.3438C164.648 72.4831 164.727 72.6721 164.727 72.8691Z" fill="#263238"/>
<path d="M164.972 72.1181C164.874 72.2079 164.319 71.7425 163.494 71.6854C162.669 71.6283 162.04 72.0038 161.958 71.8976C161.876 71.7915 162.032 71.6772 162.301 71.5058C162.676 71.2854 163.109 71.183 163.543 71.2119C163.971 71.2398 164.38 71.4027 164.711 71.6772C164.947 71.8732 165.021 72.0772 164.972 72.1181Z" fill="#263238"/>
<path d="M156.616 72.5671C156.611 72.6686 156.586 72.7681 156.542 72.8598C156.498 72.9515 156.436 73.0335 156.36 73.1011C156.284 73.1687 156.195 73.2205 156.099 73.2536C156.003 73.2866 155.901 73.3003 155.799 73.2936C155.702 73.2936 155.606 73.2744 155.516 73.2369C155.427 73.1995 155.345 73.1446 155.277 73.0755C155.208 73.0065 155.154 72.9245 155.118 72.8344C155.081 72.7443 155.063 72.6479 155.064 72.5507C155.07 72.4492 155.095 72.3497 155.139 72.258C155.183 72.1663 155.245 72.0843 155.321 72.0167C155.397 71.9491 155.485 71.8972 155.582 71.8642C155.678 71.8311 155.78 71.8175 155.881 71.8242C155.978 71.8241 156.075 71.8434 156.164 71.8808C156.254 71.9183 156.335 71.9731 156.404 72.0422C156.472 72.1113 156.526 72.1933 156.563 72.2834C156.599 72.3735 156.617 72.4699 156.616 72.5671Z" fill="#263238"/>
<path d="M156.869 71.718C156.771 71.816 156.224 71.3507 155.399 71.2935C154.574 71.2364 153.945 71.6119 153.864 71.5058C153.782 71.3997 153.929 71.2854 154.207 71.1058C154.578 70.8844 155.009 70.7845 155.44 70.82C155.87 70.8439 156.28 71.0073 156.608 71.2854C156.845 71.4976 156.918 71.6772 156.869 71.718Z" fill="#263238"/>
<path d="M159.443 78.0204C159.888 77.9204 160.343 77.8711 160.799 77.8735C161.011 77.8735 161.215 77.8735 161.256 77.6939C161.29 77.4793 161.255 77.2595 161.158 77.0653L160.644 75.4325C160.165 74.0369 159.794 72.6068 159.533 71.1548C160.13 72.5063 160.616 73.9042 160.987 75.3346C161.158 75.906 161.322 76.453 161.477 76.9673C161.584 77.2262 161.602 77.5138 161.526 77.7837C161.49 77.8549 161.438 77.917 161.374 77.9651C161.311 78.0132 161.237 78.0461 161.158 78.0612C161.039 78.0767 160.918 78.0767 160.799 78.0612C160.347 78.108 159.891 78.0943 159.443 78.0204Z" fill="#263238"/>
<path d="M156.984 78.4041C157.123 78.4041 157.058 79.294 157.801 79.9797C158.544 80.6655 159.435 80.6328 159.435 80.7961C159.435 80.9594 159.214 80.9512 158.806 80.9349C158.285 80.9043 157.791 80.6936 157.409 80.3389C157.043 79.9927 156.824 79.5194 156.796 79.0164C156.813 78.6327 156.927 78.4041 156.984 78.4041Z" fill="#263238"/>
<path d="M157.319 68.5097C157.221 68.7301 156.413 68.5669 155.441 68.624C154.469 68.6812 153.668 68.8852 153.554 68.673C153.44 68.4607 153.652 68.3709 153.979 68.175C154.414 67.9331 154.902 67.7987 155.4 67.7831C155.899 67.7577 156.397 67.85 156.854 68.0526C157.18 68.224 157.319 68.4118 157.319 68.5097Z" fill="#263238"/>
<path d="M164.833 69.7179C164.67 69.8894 164.123 69.6608 163.437 69.6036C162.751 69.5465 162.171 69.6445 162.048 69.4404C161.926 69.2363 162.105 69.1628 162.367 68.9995C162.72 68.8112 163.121 68.7316 163.519 68.7708C163.917 68.81 164.295 68.9663 164.605 69.2199C164.833 69.424 164.899 69.6281 164.833 69.7179Z" fill="#263238"/>
<path d="M146.701 68.4036C146.742 69.8975 146.595 71.3915 146.635 72.8855C146.684 73.4498 146.827 74.0018 147.06 74.5182C147.138 74.8174 147.307 75.0847 147.544 75.2827C147.782 75.4806 148.075 75.5992 148.384 75.6217C148.692 75.6443 149 75.5696 149.263 75.4083C149.527 75.2469 149.733 75.007 149.853 74.7223C150.145 74.1327 150.301 73.4857 150.311 72.8283C150.316 72.1701 150.427 71.517 150.638 70.8935C150.986 70.247 151.402 69.6395 151.879 69.0812C152.113 68.7974 152.279 68.4633 152.362 68.105C152.446 67.7467 152.446 67.3738 152.361 67.0158C150.384 66.9552 148.428 67.4321 146.701 68.3954" fill="#263238"/>
<path d="M166.499 69.0648L166.589 66.0688L158.013 62.8686L146.864 65.3177L146.651 68.5342C153.094 66.1804 160.192 66.3702 166.499 69.0648Z" fill="#455A64"/>
<path d="M166.083 65.3994L166.442 65.7912L169.456 67.9873C165.509 66.6655 161.413 65.8427 157.262 65.5382C152.703 65.4342 148.147 65.8616 143.687 66.8117L147.999 64.5993C148.699 63.9459 149.524 63.4395 150.423 63.11C151.322 62.7804 152.278 62.6345 153.235 62.6809L161.109 63.0564C162.051 63.1011 162.976 63.331 163.829 63.733C164.683 64.135 165.448 64.7013 166.083 65.3994Z" fill="#E8505B"/>
<path d="M160.586 62.7869C160.441 61.3959 160.403 59.9958 160.471 58.599C160.437 57.1996 160.508 55.7997 160.684 54.411C160.839 55.8014 160.877 57.2022 160.798 58.599C160.838 59.9984 160.767 61.3987 160.586 62.7869Z" fill="#263238"/>
<path d="M153.692 54.1743C154.176 53.9964 154.681 53.8865 155.195 53.8477C155.354 53.86 155.503 53.9313 155.612 54.0477C155.72 54.1641 155.782 54.317 155.783 54.4763L155.734 55.358C155.677 55.9866 155.628 56.6561 155.571 57.35C155.456 58.7705 155.326 60.0521 155.22 60.9746C155.196 61.4804 155.114 61.9818 154.975 62.4686C154.916 61.9669 154.916 61.46 154.975 60.9583C155.024 60.0277 155.113 58.746 155.236 57.3336C155.301 56.6316 155.358 55.9621 155.416 55.3335C155.416 55.0396 155.481 54.7539 155.506 54.4763C155.507 54.3794 155.472 54.2855 155.409 54.2119C155.346 54.1383 155.258 54.0902 155.162 54.0763C154.676 54.1485 154.184 54.1813 153.692 54.1743Z" fill="#263238"/>
<path d="M169.66 67.9628C169.66 67.9628 169.301 67.7832 168.639 67.4974C168.312 67.3505 167.912 67.1872 167.455 66.9341C166.924 66.6599 166.472 66.2554 166.14 65.7586C165.756 65.1871 165.731 64.4279 165.323 63.8564C164.915 63.285 164.065 63.1952 163.232 63.1135C161.55 62.9258 159.696 62.787 157.743 62.7053C155.791 62.6237 153.921 62.6074 152.23 62.6237C151.454 62.5588 150.679 62.7603 150.033 63.1952C149.772 63.4451 149.534 63.7183 149.323 64.0115L148.988 64.4115L148.816 64.5993C148.746 64.6632 148.666 64.7156 148.579 64.7544C147.37 65.2361 146.382 65.5708 145.704 65.7912C145.361 65.933 145.009 66.053 144.651 66.1504C144.73 66.0928 144.815 66.0436 144.904 66.0035C145.075 65.9218 145.329 65.8075 145.663 65.6688C146.317 65.383 147.297 65.0402 148.473 64.5422C148.534 64.514 148.592 64.4784 148.645 64.436L148.8 64.2483L149.118 63.8483C149.341 63.5568 149.587 63.2837 149.853 63.0319C150.54 62.5383 151.378 62.3014 152.222 62.3625C153.921 62.3625 155.791 62.3625 157.752 62.4196C159.712 62.4767 161.582 62.6482 163.273 62.8523C163.691 62.885 164.106 62.9505 164.515 63.0482C164.906 63.1479 165.25 63.382 165.486 63.7095C165.96 64.3789 165.96 65.1381 166.303 65.6443C166.603 66.119 167.019 66.5095 167.512 66.779C167.945 67.0403 168.329 67.228 168.664 67.3913C168.999 67.5546 169.227 67.6934 169.391 67.7913C169.488 67.8352 169.579 67.8929 169.66 67.9628Z" fill="#263238"/>
<path d="M168.451 68.3464C168.372 68.3129 168.298 68.269 168.231 68.2158C168.092 68.1179 167.88 67.9872 167.602 67.8321C166.794 67.4308 165.949 67.1108 165.078 66.877C162.19 66.1188 159.209 65.7725 156.224 65.8483C154.468 65.8483 152.802 65.8483 151.324 65.9137C149.845 65.979 148.457 66.2157 147.33 66.4035C146.823 66.4894 146.322 66.6011 145.827 66.7382C145.453 66.8062 145.098 66.9568 144.79 67.179C144.667 67.2766 144.569 67.401 144.502 67.5425C144.436 67.6841 144.403 67.839 144.406 67.9954C144.36 67.9164 144.343 67.8243 144.357 67.7342C144.386 67.4744 144.507 67.2338 144.7 67.0566C145.01 66.7985 145.376 66.6168 145.77 66.5259C146.269 66.371 146.776 66.2429 147.289 66.1422C148.615 65.8832 149.953 65.6952 151.299 65.5789C152.827 65.4646 154.509 65.4973 156.257 65.4891C159.271 65.4081 162.279 65.7909 165.176 66.6239C166.059 66.8737 166.907 67.233 167.7 67.6933C167.914 67.8189 168.116 67.9637 168.304 68.126C168.402 68.273 168.46 68.3383 168.451 68.3464Z" fill="#263238"/>
<path d="M159.32 53.4232C159.048 53.444 158.775 53.444 158.504 53.4232L156.527 53.3497C155.759 53.3497 155.049 53.2273 154.559 53.2762C154.425 53.2813 154.295 53.3154 154.177 53.376C154.058 53.4366 153.954 53.5224 153.872 53.6273C153.872 53.6273 153.872 53.5456 153.987 53.4395C154.142 53.2966 154.34 53.2079 154.55 53.1864C155.211 53.135 155.875 53.135 156.535 53.1864L158.512 53.3007C158.785 53.311 159.056 53.3521 159.32 53.4232Z" fill="#FAFAFA"/>
<path d="M159.663 63.1135C159.525 63.1276 159.385 63.1276 159.247 63.1135H158.119C157.164 63.1135 155.849 63.1135 154.395 63.1135L152.345 63.1625C151.798 63.1595 151.251 63.2032 150.711 63.2931C150.346 63.369 150.017 63.5678 149.78 63.8564C149.701 63.9651 149.635 64.083 149.584 64.2074C149.6 64.0677 149.653 63.935 149.739 63.8237C149.971 63.5106 150.307 63.2906 150.687 63.2033C151.225 63.0992 151.772 63.0445 152.32 63.04C152.949 63.04 153.643 62.991 154.37 62.9829C155.832 62.9829 157.147 62.9829 158.103 63.0237L159.23 63.0808C159.375 63.0789 159.52 63.0898 159.663 63.1135Z" fill="#FAFAFA"/>
<path d="M155.358 61.6604C155.347 61.5627 155.347 61.4641 155.358 61.3665C155.358 61.0971 155.432 60.8358 155.472 60.5501C155.562 59.8725 155.677 58.9174 155.783 57.8969C155.889 56.8765 155.946 55.9213 155.987 55.2437C155.987 54.9662 156.003 54.694 156.036 54.4274C156.022 54.3299 156.022 54.2309 156.036 54.1335C156.048 54.2311 156.048 54.3298 156.036 54.4274C156.036 54.6151 156.036 54.8927 156.036 55.2437C156.036 55.9295 155.971 56.8764 155.873 57.9132C155.775 58.95 155.636 59.8889 155.521 60.5583C155.464 60.9012 155.407 61.1706 155.366 61.3746C155.377 61.4698 155.375 61.566 155.358 61.6604Z" fill="#FAFAFA"/>
<path d="M148.563 64.9095C148.481 64.9572 148.393 64.9955 148.302 65.0238L147.583 65.2932L145.198 66.1096C144.759 66.2496 144.328 66.4159 143.908 66.6076C143.572 66.7622 143.303 67.0314 143.148 67.3668C143.048 67.5952 143.022 67.8495 143.075 68.0934C143.132 68.2566 143.197 68.3383 143.181 68.3464C143.112 68.2802 143.059 68.1992 143.026 68.1097C142.933 67.8594 142.933 67.5844 143.026 67.3341C143.189 66.9717 143.48 66.6814 143.843 66.5178C144.264 66.3115 144.701 66.1395 145.149 66.0035L147.551 65.1871L148.278 64.9585C148.37 64.9305 148.467 64.9141 148.563 64.9095Z" fill="#FAFAFA"/>
<path d="M208.931 210.803L208.188 224.061C208.188 224.061 221.42 229.261 221.518 231.718L195.757 231.212L196.067 210.517L208.931 210.803Z" fill="#E8505B"/>
<g opacity="0.4">
<path opacity="0.4" d="M208.931 210.803L208.188 224.061C208.188 224.061 221.42 229.261 221.518 231.718L195.757 231.212L196.067 210.517L208.931 210.803Z" fill="black"/>
</g>
<path d="M200.248 222.787C199.999 222.856 199.784 223.016 199.645 223.234C199.506 223.453 199.453 223.716 199.497 223.971C199.558 224.222 199.713 224.441 199.93 224.581C200.148 224.721 200.411 224.771 200.665 224.722C200.935 224.654 201.169 224.487 201.32 224.254C201.472 224.02 201.529 223.739 201.482 223.465C201.391 223.21 201.205 223 200.963 222.879C200.721 222.757 200.442 222.733 200.183 222.812" fill="#E0E0E0"/>
<path d="M195.756 231.212L195.87 229.13L220.529 230.396C220.529 230.396 221.664 230.918 221.517 231.718L195.756 231.212Z" fill="#E0E0E0"/>
<path d="M208.603 223.938C208.603 224.061 207.975 224.102 207.346 224.493C206.717 224.885 206.374 225.408 206.259 225.359C206.145 225.31 206.349 224.583 207.117 224.126C207.885 223.669 208.636 223.824 208.603 223.938Z" fill="#263238"/>
<path d="M211.291 225.106C211.291 225.228 210.768 225.432 210.327 225.922C209.886 226.412 209.756 227.008 209.633 227C209.51 226.991 209.437 226.273 209.992 225.636C210.548 225 211.291 224.983 211.291 225.106Z" fill="#263238"/>
<path d="M212.761 228.371C212.647 228.371 212.483 227.759 212.818 227.081C213.153 226.404 213.749 226.134 213.798 226.265C213.847 226.396 213.48 226.73 213.21 227.294C212.941 227.857 212.859 228.355 212.761 228.371Z" fill="#263238"/>
<path d="M208.44 220.893C208.383 221.008 207.811 220.828 207.101 220.893C206.39 220.959 205.827 221.138 205.77 221.032C205.712 220.926 206.243 220.485 207.084 220.452C207.926 220.42 208.506 220.795 208.44 220.893Z" fill="#263238"/>
<g opacity="0.3">
<path opacity="0.3" d="M208.775 213.432L208.645 215.799L195.993 215.432L196.017 213.301L208.775 213.432Z" fill="black"/>
</g>
<path d="M208.539 218.224C208.116 218.335 207.672 218.335 207.249 218.224C206.787 218.127 206.338 217.979 205.909 217.783C205.656 217.661 205.411 217.524 205.174 217.375C205.034 217.287 204.905 217.183 204.79 217.064C204.712 216.972 204.666 216.857 204.659 216.736C204.652 216.616 204.683 216.496 204.749 216.395C204.813 216.308 204.897 216.238 204.994 216.19C205.09 216.142 205.197 216.117 205.305 216.117C205.468 216.114 205.631 216.139 205.787 216.191C206.068 216.26 206.342 216.358 206.603 216.485C207.035 216.694 207.432 216.97 207.779 217.301C208.359 217.864 208.555 218.338 208.515 218.362C208.474 218.387 208.172 218.003 207.575 217.546C207.225 217.275 206.84 217.05 206.432 216.877C206.194 216.776 205.948 216.694 205.697 216.632C205.427 216.55 205.198 216.55 205.125 216.632C205.051 216.713 205.125 216.697 205.125 216.779C205.208 216.866 205.301 216.943 205.403 217.007C205.621 217.154 205.847 217.287 206.081 217.407C206.475 217.614 206.888 217.783 207.314 217.913C207.73 217.983 208.14 218.087 208.539 218.224Z" fill="#263238"/>
<path d="M208.376 218.395C208.327 218.395 208.09 217.962 208.057 217.146C208.048 216.667 208.117 216.19 208.261 215.734C208.347 215.45 208.462 215.177 208.604 214.917C208.675 214.751 208.788 214.607 208.931 214.496C209.074 214.386 209.243 214.315 209.421 214.289C209.535 214.294 209.646 214.331 209.74 214.396C209.834 214.461 209.907 214.551 209.952 214.656C210.013 214.808 210.054 214.967 210.075 215.13C210.116 215.417 210.116 215.708 210.075 215.995C209.992 216.477 209.793 216.931 209.495 217.318C208.98 217.979 208.449 218.134 208.441 218.077C208.433 218.02 208.841 217.775 209.258 217.146C209.488 216.78 209.636 216.367 209.691 215.938C209.727 215.692 209.727 215.441 209.691 215.195C209.691 214.917 209.56 214.697 209.454 214.721C209.348 214.746 209.103 214.917 208.996 215.138C208.86 215.357 208.748 215.589 208.662 215.832C208.508 216.243 208.414 216.675 208.384 217.113C208.319 217.905 208.441 218.379 208.376 218.395Z" fill="#263238"/>
<path d="M139.35 154.498C139.35 154.498 142.168 168.931 146.84 169.135C152.558 169.38 194.09 169.952 194.09 169.952L191.624 216.166L209.74 215.734L216.944 170.188C217.748 166.102 217.065 161.863 215.016 158.237L214.869 157.984C213.321 155.439 211.145 153.334 208.549 151.872C205.953 150.409 203.025 149.638 200.045 149.632L165.552 149.11L139.35 154.498Z" fill="#263238"/>
<path d="M201.882 210.803L201.147 224.061C201.147 224.061 214.379 229.261 214.477 231.718L188.716 231.212L189.026 210.517L201.882 210.803Z" fill="#E8505B"/>
<path d="M193.207 222.787C192.958 222.856 192.743 223.016 192.604 223.234C192.465 223.453 192.412 223.716 192.456 223.971C192.515 224.223 192.669 224.443 192.888 224.583C193.106 224.724 193.37 224.773 193.624 224.722C193.894 224.654 194.128 224.487 194.279 224.254C194.431 224.02 194.488 223.739 194.441 223.465C194.35 223.21 194.164 223 193.922 222.879C193.68 222.757 193.401 222.733 193.142 222.812" fill="#E0E0E0"/>
<path d="M188.716 231.212L188.83 229.13L213.489 230.396C213.489 230.396 214.624 230.918 214.477 231.718L188.716 231.212Z" fill="#E0E0E0"/>
<path d="M201.563 223.938C201.563 224.061 200.926 224.102 200.306 224.493C199.685 224.885 199.334 225.408 199.219 225.359C199.105 225.31 199.309 224.583 200.077 224.126C200.845 223.669 201.596 223.824 201.563 223.938Z" fill="#263238"/>
<path d="M204.242 225.106C204.242 225.228 203.719 225.432 203.287 225.922C202.854 226.412 202.715 227.008 202.592 227C202.47 226.991 202.396 226.273 202.952 225.636C203.507 225 204.242 224.983 204.242 225.106Z" fill="#263238"/>
<path d="M205.721 228.371C205.598 228.371 205.443 227.759 205.778 227.081C206.113 226.404 206.709 226.134 206.758 226.265C206.807 226.396 206.44 226.73 206.17 227.294C205.901 227.857 205.843 228.355 205.721 228.371Z" fill="#263238"/>
<path d="M201.425 220.893C201.368 221.008 200.796 220.828 200.085 220.893C199.375 220.959 198.811 221.138 198.754 221.032C198.697 220.926 199.228 220.485 200.069 220.452C200.91 220.42 201.425 220.795 201.425 220.893Z" fill="#263238"/>
<g opacity="0.3">
<path opacity="0.3" d="M201.735 213.432L201.605 215.799L188.953 215.432L188.977 213.301L201.735 213.432Z" fill="black"/>
</g>
<path d="M201.498 218.224C201.075 218.335 200.63 218.335 200.208 218.224C199.746 218.127 199.297 217.979 198.868 217.783C198.615 217.663 198.369 217.526 198.133 217.375C197.993 217.287 197.864 217.183 197.749 217.064C197.671 216.972 197.625 216.857 197.618 216.736C197.611 216.616 197.642 216.496 197.708 216.395C197.772 216.308 197.856 216.238 197.953 216.19C198.049 216.142 198.156 216.117 198.264 216.117C198.427 216.114 198.59 216.139 198.746 216.191C199.027 216.26 199.301 216.358 199.562 216.485C199.993 216.692 200.388 216.968 200.73 217.301C201.318 217.864 201.547 218.338 201.474 218.362C201.4 218.387 201.131 218.003 200.534 217.546C200.184 217.275 199.799 217.05 199.391 216.877C199.153 216.776 198.907 216.694 198.656 216.632C198.386 216.55 198.157 216.55 198.084 216.632C198.01 216.713 198.084 216.697 198.084 216.779C198.166 216.866 198.26 216.943 198.362 217.007C198.58 217.154 198.806 217.287 199.04 217.407C199.434 217.614 199.847 217.783 200.273 217.913C200.689 217.983 201.099 218.087 201.498 218.224Z" fill="#263238"/>
<path d="M201.335 218.395C201.286 218.395 201.049 217.962 201.016 217.146C201.003 216.667 201.072 216.189 201.22 215.734C201.306 215.45 201.421 215.177 201.563 214.917C201.634 214.751 201.747 214.607 201.89 214.496C202.033 214.386 202.202 214.315 202.38 214.289C202.494 214.294 202.605 214.331 202.699 214.396C202.793 214.461 202.866 214.551 202.911 214.656C202.972 214.808 203.013 214.967 203.034 215.13C203.075 215.417 203.075 215.708 203.034 215.995C202.951 216.477 202.752 216.931 202.454 217.318C201.939 217.979 201.408 218.134 201.4 218.077C201.392 218.02 201.8 217.775 202.217 217.146C202.447 216.78 202.595 216.367 202.65 215.938C202.686 215.692 202.686 215.441 202.65 215.195C202.609 214.917 202.511 214.697 202.413 214.721C202.315 214.746 202.062 214.917 201.955 215.138C201.819 215.357 201.707 215.589 201.621 215.832C201.467 216.243 201.373 216.675 201.343 217.113C201.278 217.905 201.425 218.379 201.335 218.395Z" fill="#263238"/>
<path d="M134.809 154.498C134.809 154.498 137.619 168.931 142.299 169.135C148.016 169.38 189.549 169.952 189.549 169.952L187.025 216.166L205.141 215.734L212.386 170.188C213.191 166.102 212.507 161.863 210.459 158.237L210.312 157.984C208.763 155.438 206.585 153.332 203.988 151.87C201.39 150.407 198.46 149.637 195.479 149.632L160.995 149.11L134.809 154.498Z" fill="#263238"/>
<path d="M170.143 96.552L164.67 132.864L168.37 149.192L134.768 159.078C131.73 154.735 131.615 140.946 131.722 131.191C131.909 113.998 131.15 113.165 131.893 107.132C132.636 101.099 133.902 97.2296 137.088 95.3275L146.252 90.6497C146.252 90.6497 151.414 93.9151 154.559 93.76C154.559 93.76 158.291 93.9151 160.358 91.9314C160.358 91.9069 167.937 94.1927 170.143 96.552Z" fill="#E8505B"/>
<path d="M170.142 96.552L181.34 111.981L166.091 120.929L167.259 115.32L170.142 96.552Z" fill="#E8505B"/>
<path d="M196.826 149.853C196.891 149.866 196.957 149.866 197.022 149.853L197.586 149.894C197.895 149.914 198.203 149.952 198.508 150.008C198.924 150.058 199.336 150.134 199.742 150.236C202.343 150.875 204.745 152.148 206.733 153.943C208.1 155.174 209.276 156.602 210.221 158.18C211.303 159.987 211.975 162.011 212.189 164.107C212.385 166.435 212.297 168.779 211.928 171.086C211.593 173.536 211.111 175.985 210.858 178.589C210.278 183.732 209.502 188.614 208.775 193.047C208.048 197.48 207.346 201.455 206.782 204.819C206.219 208.182 205.778 210.884 205.508 212.77C205.386 213.685 205.288 214.403 205.214 214.942C205.214 215.17 205.165 215.35 205.149 215.505C205.142 215.57 205.142 215.636 205.149 215.701C205.175 215.641 205.191 215.578 205.198 215.513C205.198 215.358 205.263 215.179 205.312 214.95L205.68 212.795C206.023 210.884 206.497 208.19 207.085 204.868C207.673 201.545 208.383 197.521 209.167 193.112C209.951 188.704 210.711 183.797 211.291 178.63C211.552 176.058 212.018 173.576 212.345 171.144C212.718 168.803 212.798 166.426 212.581 164.066C212.356 161.917 211.656 159.845 210.531 158C209.559 156.397 208.347 154.951 206.938 153.714C204.901 151.913 202.438 150.66 199.783 150.073C198.812 149.866 197.817 149.792 196.826 149.853Z" fill="#455A64"/>
<path d="M183.954 138.644C183.954 138.644 170.992 142.824 160.913 146.473C159.201 147.094 157.363 147.282 155.562 147.02C153.76 146.757 152.052 146.054 150.589 144.971C148.716 143.591 147.329 141.653 146.627 139.436L139.726 117.704L151.25 113.671L158.952 133.207L187.621 129.444" fill="#FFBE9D"/>
<path d="M201.098 134.162L201.204 133.133C201.133 132.374 200.818 131.658 200.306 131.093C200.028 130.784 199.696 130.529 199.326 130.342L195.936 128.57C195.432 128.314 194.861 128.223 194.302 128.309L187.352 129.493L179.372 130.537L181.005 139.632L184.697 138.407C184.697 138.407 187.368 139.885 189.018 139.534C189.018 139.534 190.545 140.554 191.174 139.803C191.174 139.803 192.538 140.979 193.053 140.905C193.567 140.832 194.58 140.236 194.539 139.885L194.498 139.411C194.76 139.555 195.056 139.623 195.354 139.611C195.652 139.598 195.941 139.503 196.189 139.338C196.542 139.064 196.811 138.696 196.965 138.277C197.602 138.21 198.203 137.951 198.688 137.534C199.01 137.063 199.224 136.528 199.317 135.966C199.317 135.966 200.845 135.223 201.098 134.162Z" fill="#FFBE9D"/>
<path d="M195.968 130.872C195.919 130.872 195.837 131.248 196.009 131.819C196.262 132.543 196.681 133.197 197.234 133.729C197.846 134.358 198.418 134.872 198.769 135.297C199.121 135.721 199.308 136.015 199.366 135.991C199.423 135.966 199.366 135.607 199.006 135.117C198.574 134.511 198.084 133.948 197.544 133.436C197.034 132.934 196.609 132.352 196.286 131.713C196.066 131.223 196.041 130.872 195.968 130.872Z" fill="#EB996E"/>
<path d="M194.645 134.505C195.034 135.965 195.878 137.263 197.055 138.211C196.754 137.535 196.37 136.898 195.911 136.317C195.25 135.305 194.76 134.448 194.645 134.505Z" fill="#EB996E"/>
<path d="M192.873 136.905C192.775 136.97 193.06 137.558 193.518 138.228C193.975 138.897 194.416 139.387 194.514 139.313C194.612 139.24 194.318 138.652 193.869 137.991C193.42 137.33 192.971 136.84 192.873 136.905Z" fill="#EB996E"/>
<path d="M193.199 135.95C193.199 135.999 193.379 136.007 193.591 135.876C193.73 135.784 193.847 135.664 193.936 135.523C194.024 135.382 194.082 135.225 194.106 135.06C194.134 134.899 194.127 134.734 194.085 134.576C194.043 134.418 193.966 134.271 193.861 134.146C193.706 133.958 193.55 133.909 193.51 133.95C193.469 133.991 193.779 134.448 193.689 134.995C193.599 135.542 193.15 135.844 193.199 135.95Z" fill="#EB996E"/>
<path d="M191.264 138.391C191.264 138.44 191.411 138.448 191.59 138.391C191.705 138.323 191.805 138.232 191.884 138.123C191.962 138.015 192.018 137.893 192.048 137.762C192.098 137.62 192.105 137.466 192.065 137.32C192.026 137.174 191.943 137.043 191.827 136.946C191.615 136.799 191.452 136.897 191.468 136.946C191.558 137.031 191.622 137.14 191.651 137.26C191.68 137.381 191.673 137.507 191.631 137.624C191.542 138.04 191.215 138.285 191.264 138.391Z" fill="#EB996E"/>
<path d="M194.327 133.354C194.327 133.403 194.506 133.444 194.751 133.354C194.915 133.275 195.055 133.155 195.158 133.005C195.261 132.856 195.324 132.683 195.34 132.502C195.357 132.321 195.326 132.139 195.252 131.974C195.177 131.809 195.061 131.665 194.915 131.558C194.694 131.403 194.515 131.419 194.506 131.468C194.498 131.517 194.964 131.884 194.915 132.464C194.866 133.044 194.294 133.256 194.327 133.354Z" fill="#EB996E"/>
<path d="M139.668 98.2745C142.298 97.1316 145.541 98.2745 147.444 100.266C149.347 102.258 150.221 104.863 151.038 107.393C151.855 109.924 153.799 114.798 154.591 117.239L139.652 123.631C138.378 120.186 137.191 116.711 136.091 113.206C135.16 110.267 134.294 107.099 135.372 104.177" fill="#E8505B"/>
<path d="M135.372 104.177C135.305 104.289 135.253 104.41 135.217 104.536C135.087 104.888 134.991 105.252 134.931 105.622C134.697 107.009 134.733 108.428 135.037 109.802C135.494 111.893 136.097 113.95 136.842 115.957C137.659 118.292 138.476 120.896 139.448 123.696L139.521 123.9L139.734 123.811L150.254 119.321L154.681 117.427L154.86 117.345L154.803 117.182C153.594 113.622 152.247 110.365 151.234 107.385C150.79 105.941 150.244 104.531 149.6 103.165C149.024 101.945 148.232 100.839 147.264 99.8991C145.785 98.5047 143.825 97.733 141.792 97.7439C141.236 97.7612 140.686 97.8602 140.158 98.0378C139.981 98.0998 139.809 98.1762 139.644 98.2664C140.332 98.0382 141.051 97.9117 141.776 97.8908C143.746 97.9337 145.627 98.7179 147.044 100.087C147.966 101.006 148.719 102.081 149.265 103.263C149.885 104.623 150.409 106.025 150.834 107.459C151.822 110.487 153.17 113.761 154.354 117.296L154.476 117.051L150.041 118.945L139.538 123.451L139.824 123.566C138.86 120.766 137.961 118.178 137.153 115.851C136.392 113.861 135.762 111.824 135.266 109.753C134.95 108.416 134.873 107.034 135.037 105.671C135.209 104.683 135.405 104.185 135.372 104.177Z" fill="#263238"/>
<path d="M154.517 140.66C154.566 140.66 154.681 139.844 155.187 138.35C155.498 137.469 155.912 136.628 156.42 135.844C157.068 134.813 157.96 133.958 159.018 133.354H158.977L175.157 131.248L184.958 129.933L189.214 129.346L192.914 128.75L194.547 128.497C195.005 128.415 195.477 128.499 195.879 128.733L197.978 129.746L199.309 130.374C199.461 130.458 199.623 130.521 199.791 130.562C199.651 130.461 199.504 130.371 199.35 130.293L198.051 129.599L195.985 128.521C195.541 128.255 195.018 128.151 194.506 128.227L192.873 128.456L189.173 128.995L184.909 129.55L175.108 130.831L158.952 133.044H158.903C157.797 133.683 156.872 134.593 156.216 135.689C155.714 136.498 155.316 137.368 155.032 138.277C154.852 138.846 154.71 139.427 154.607 140.015C154.554 140.227 154.524 140.443 154.517 140.66Z" fill="#EB996E"/>
<path d="M164.67 132.284C164.782 131.901 164.856 131.507 164.89 131.109C165.029 130.293 165.201 129.199 165.405 127.901C165.87 125.117 166.483 121.41 167.161 117.288C167.839 113.165 168.46 109.483 168.917 106.675C169.121 105.377 169.285 104.291 169.415 103.458C169.5 103.067 169.544 102.667 169.546 102.267C169.412 102.643 169.313 103.031 169.252 103.426L168.623 106.626C168.108 109.328 167.43 113.059 166.736 117.239C166.042 121.419 165.47 125.133 165.103 127.852C164.915 129.215 164.792 130.301 164.719 131.117C164.664 131.504 164.648 131.895 164.67 132.284Z" fill="#263238"/>
<path d="M9.89111 310.988C9.89111 311.11 128.111 311.2 273.905 311.2C419.699 311.2 537.935 311.11 537.935 310.988C537.935 310.865 419.739 310.775 273.888 310.775C128.037 310.775 9.89111 310.873 9.89111 310.988Z" fill="#263238"/>
<path d="M522.106 283.77C523.421 285.542 525.863 284.872 526.966 283.77C528.068 282.668 528.518 281.027 528.918 279.492C529.824 275.99 530.731 272.316 529.89 268.798C529.686 267.728 529.188 266.736 528.452 265.932C528.081 265.537 527.613 265.246 527.094 265.088C526.575 264.931 526.024 264.912 525.495 265.034C524.262 265.394 523.527 266.626 522.996 267.794C521.458 271.238 520.703 274.979 520.783 278.749C520.718 280.518 521.181 282.266 522.114 283.77" fill="#E8505B"/>
<g opacity="0.2">
<path opacity="0.2" d="M522.106 283.77C523.421 285.542 525.863 284.872 526.966 283.77C528.068 282.668 528.518 281.027 528.918 279.492C529.824 275.99 530.731 272.316 529.89 268.798C529.686 267.728 529.188 266.736 528.452 265.932C528.081 265.537 527.613 265.246 527.094 265.088C526.575 264.931 526.024 264.912 525.495 265.034C524.262 265.394 523.527 266.626 522.996 267.794C521.458 271.238 520.703 274.979 520.783 278.749C520.718 280.518 521.181 282.266 522.114 283.77" fill="black"/>
</g>
<path d="M527.088 292.775C529.178 291.728 531.547 291.376 533.851 291.77C535.107 291.852 536.302 292.345 537.249 293.175C538.115 294.081 538.311 295.705 537.371 296.53C536.76 296.96 536.019 297.168 535.272 297.118C533.475 297.118 531.474 296.881 530.069 297.999C529.253 298.644 528.746 299.681 527.774 300.008C527.288 300.135 526.774 300.101 526.309 299.909C525.845 299.718 525.456 299.379 525.201 298.946C524.71 298.058 524.578 297.014 524.834 296.032C524.934 295.352 525.19 294.705 525.581 294.14C525.972 293.575 526.487 293.108 527.088 292.775Z" fill="#E8505B"/>
<path d="M518.708 286.448C519.337 285.584 519.743 284.579 519.893 283.522C520.042 282.464 519.93 281.386 519.566 280.382C518.83 278.378 517.555 276.615 515.882 275.288C513.959 273.673 511.739 272.448 509.348 271.68C508.423 271.335 507.433 271.195 506.449 271.271C505.958 271.312 505.484 271.473 505.07 271.739C504.656 272.005 504.313 272.369 504.072 272.798C503.426 274.096 504.121 275.639 504.888 276.88C506.183 279.09 507.649 281.194 509.275 283.174C510.581 284.766 512.068 286.333 514.012 287.019C515.956 287.705 517.949 287.558 518.912 286.203" fill="#E8505B"/>
<path d="M522.751 310.988C522.812 310.72 522.842 310.446 522.841 310.171C522.89 309.567 522.939 308.816 523.004 307.926C523.085 306.831 523.224 305.741 523.421 304.661C523.678 303.333 524.041 302.028 524.507 300.759C524.962 299.485 525.597 298.284 526.394 297.191C527.042 296.305 527.879 295.575 528.844 295.052C529.498 294.703 530.204 294.46 530.935 294.334C531.212 294.32 531.486 294.274 531.752 294.195C531.48 294.167 531.207 294.167 530.935 294.195C530.176 294.272 529.437 294.484 528.754 294.824C527.737 295.34 526.851 296.083 526.165 296.995C525.337 298.102 524.679 299.327 524.213 300.628C523.732 301.897 523.363 303.205 523.11 304.538C522.928 305.641 522.81 306.753 522.759 307.869C522.759 308.824 522.71 309.592 522.71 310.122C522.695 310.411 522.709 310.701 522.751 310.988Z" fill="#263238"/>
<path d="M522.858 309.257C522.876 309.13 522.876 309.001 522.858 308.873C522.858 308.588 522.858 308.228 522.858 307.788C522.858 306.849 522.792 305.477 522.801 303.796C522.801 300.416 522.956 295.754 523.381 290.619C523.805 285.484 524.434 280.823 525.014 277.557C525.153 276.741 525.292 275.974 525.431 275.321C525.57 274.667 525.668 274.096 525.774 273.631C525.88 273.165 525.945 272.814 526.002 272.569C526.034 272.447 526.053 272.321 526.06 272.194C526.06 272.194 526.002 272.316 525.937 272.553C525.872 272.79 525.766 273.174 525.651 273.606C525.537 274.039 525.39 274.627 525.243 275.28C525.096 275.933 524.932 276.684 524.777 277.517C523.962 281.836 523.378 286.196 523.029 290.579C522.605 295.722 522.474 300.375 522.539 303.787C522.539 305.477 522.637 306.849 522.711 307.788C522.711 308.228 522.776 308.604 522.801 308.873C522.811 309.002 522.83 309.131 522.858 309.257Z" fill="#263238"/>
<path d="M522.637 300.252C522.671 299.872 522.671 299.49 522.637 299.11C522.571 298.383 522.449 297.33 522.204 296.048C521.556 292.695 520.502 289.433 519.067 286.333C517.685 283.201 515.748 280.344 513.35 277.9C512.931 277.484 512.486 277.094 512.018 276.733C511.814 276.57 511.635 276.406 511.455 276.276L510.94 275.941C510.632 275.723 510.307 275.53 509.968 275.361C511.093 276.198 512.165 277.103 513.178 278.072C515.509 280.534 517.403 283.375 518.781 286.472C519.56 288.163 520.228 289.903 520.782 291.681C521.253 293.129 521.648 294.6 521.967 296.089C522.236 297.362 522.4 298.407 522.506 299.126C522.524 299.504 522.568 299.88 522.637 300.252Z" fill="#263238"/>
</g>
<defs>
<clipPath id="clip0">
<rect width="538" height="312" fill="white" transform="matrix(-1 0 0 1 538 0)"/>
</clipPath>
</defs>
</svg>
